<svg id="Calque_1" data-name="Calque 1" xmlns="http://www.w3.org/2000/svg" viewBox="0 0 143.51 148.04"><defs><style>.cls-1{fill:#7d7d7d;}.cls-2{fill:#d0cfcf;}.cls-3{fill:#d0cfce;}.cls-4{fill:#cfcfcf;}.cls-5{fill:#fff;}.cls-6{fill:#fffdfc;}.cls-7{fill:#e31018;}.cls-8{fill:#fffdfd;}.cls-9{fill:#878787;}.cls-10{fill:#a8a7a6;}.cls-11{fill:#e41f1f;}.cls-12{fill:#888787;}.cls-13{fill:#fdffff;}</style></defs><title>LOGO</title><path class="cls-1" d="M71.7.18c.62-.5.94.16,1.3.39A264.63,264.63,0,0,0,97.84,15c9.58,4.82,19.42,8.92,29.93,11.27a75.2,75.2,0,0,0,14.62,1.69c.79,0,1.11.2,1.11,1.08a218.08,218.08,0,0,1-1.69,30.27c-2.14,15.35-6.88,29.77-15.36,42.85-7.55,11.65-17.23,21.27-28.28,29.58a187.07,187.07,0,0,1-25.8,16.06c-.2.1-.43.48-.69.06l.07-6.26c.44-.18.9-.34,1.31-.56,3.25-1.72,6.46-3.49,9.6-5.4,12.37-7.49,23.72-16.22,32.95-27.48a52.32,52.32,0,0,0,5.54-7.63,71.12,71.12,0,0,0,7.3-13.2c0-.05,0-.14-.05-.22h0c.24.07.22-.12.26-.26a62.35,62.35,0,0,0,3.24-8.45A86.3,86.3,0,0,0,135.31,64a94,94,0,0,0,1.4-10.5c.53-5,.6-10.09.75-15.14a23.17,23.17,0,0,0-.09-4.64c.3-1.88.3-1.86-1.54-2-2.55-.12-5.1-.27-7.63-.6a46.65,46.65,0,0,0-5.08-.77c-.31-.4-.8-.33-1.2-.42a104.09,104.09,0,0,1-11.77-3.64c-3.33-1.23-6.54-2.74-9.83-4.08l-10.08-5.1a4.58,4.58,0,0,0-.56-.43C85,14.23,80.48,11.47,76,8.68a20.4,20.4,0,0,0-4.19-2.49Z"/><path class="cls-2" d="M71.76,141.58l-.07,6.26a48.89,48.89,0,0,1-6.79-3.51,173,173,0,0,1-20.73-13.56c-11.8-9.07-22-19.65-29.47-32.57a100.21,100.21,0,0,1-11.58-31A144,144,0,0,1,.66,48.1c-.26-4-.45-8-.46-12.08,0-2.23-.1-4.47-.19-6.7C0,28.41.25,28,1.22,28c10-.09,19.57-2.47,28.87-6C42.87,17.15,54.78,10.59,66.34,3.35c1.56-1,3.12-1.93,4.68-2.89a34.73,34.73,0,0,0,.3,5.81h0a6.39,6.39,0,0,0-3.38,2.18l0,0a4,4,0,0,0-2.67,1.68l0,0a1,1,0,0,0-1.21.76l0,0a.61.61,0,0,0-.76.47h0a8.92,8.92,0,0,0-4.08,2.44l0,0c-1.6.29-2.77,1.43-4.18,2.11-.48.23-1.19.34-1.36,1l0,0a1.8,1.8,0,0,0-1.44.39c-3.45,2-7.13,3.5-10.63,5.38-1.27.69-2.85.8-3.82,2a3.5,3.5,0,0,1-.32.17c-9.72,4-19.68,7-30.32,7.07-.76,0-1.14.16-1.13,1.06.05,5.07,0,10.15.36,15.22.09,1.66.07,3.34.29,5a20.85,20.85,0,0,0,.61,4.43,91.22,91.22,0,0,0,3.39,17.8,52.42,52.42,0,0,0,2.9,8.39,2,2,0,0,0,.07.46,87.58,87.58,0,0,0,7.47,14.66c.15.23.26.5.59.55a32.92,32.92,0,0,0,5.12,7.31,3,3,0,0,0,.27.51A92.16,92.16,0,0,0,36,116.84a18,18,0,0,0,3.85,3.31,37.41,37.41,0,0,0,7.44,6.11,35,35,0,0,0,5.4,4.06,158.6,158.6,0,0,0,19.07,11.26Z"/><path class="cls-3" d="M71.33,6.27A34.72,34.72,0,0,1,71,.45c.15-.26.41-.26.67-.27l.08,6,0,0Z"/><path class="cls-4" d="M137.36,33.76a23.15,23.15,0,0,1,.09,4.64c-.15,5-.22,10.1-.75,15.14a5.62,5.62,0,0,0-.66.23c-8.35,4.08-16.69,8.18-25,12.23a26.22,26.22,0,0,1-4.35,1.95c-.21-1.95,0-3.9-.09-5.85,0-1.27.43-2.94-.21-3.71s-2.46-.28-3.76-.3c-4.42,0-8.85,0-13.28,0-.42,0-.88.17-1.25-.21.1-.36.43-.42.71-.56a26.43,26.43,0,0,0,3.59-1.86h3.22c3,0,3,0,3.05-2.92,0-.08,0-.16,0-.24a1.69,1.69,0,0,0,1.12-.33l9-4.4L136,34.22A3.14,3.14,0,0,1,137.36,33.76Z"/><path class="cls-2" d="M121.16,100.52a52.32,52.32,0,0,1-5.54,7.63c-9.23,11.26-20.57,20-32.95,27.48-3.14,1.9-6.36,3.68-9.6,5.4-.42.22-.88.37-1.31.56h0c0-.31.08-.63.08-.94q0-8.18,0-16.35l13.72-6.66A30.61,30.61,0,0,0,90,115.39a28.65,28.65,0,0,0,10.76-2.48,38.61,38.61,0,0,0,12.7-9.21c.32.35.59,0,.85-.08,1.3-.61,2.58-1.27,3.89-1.85A9.52,9.52,0,0,1,121.16,100.52Z"/><path class="cls-4" d="M100.31,22.29c3.28,1.34,6.5,2.85,9.83,4.08A104.09,104.09,0,0,0,121.91,30c.4.1.89,0,1.2.42-.17.54-.71.61-1.12.81q-11.13,5.46-22.28,10.9c-.32.16-.67.26-1,.38-.13-.58-.58-.56-1-.56-3.82,0-7.65,0-11.47,0-.89,0-1.05.35-1,1.13,0,2.11,0,4.22,0,6.33-1,0-1.68.8-2.6,1,0-5.15-.06-10.3,0-15.46,0-.91-.26-1.16-1.15-1.14a20.18,20.18,0,0,1-4.18-.1c.08-.32.38-.39.62-.51Z"/><path class="cls-3" d="M135.31,64a86.3,86.3,0,0,1-3.41,14.37,62.35,62.35,0,0,1-3.24,8.45l-.26.26h0A59.22,59.22,0,0,0,123,89.56a20.07,20.07,0,0,1-3.57,1.62,13.59,13.59,0,0,0-1.65-8.41,10,10,0,0,0-5.22-4.36,9.51,9.51,0,0,1,2.07,6.13c0,.55.36.84.73,1.15a8.54,8.54,0,0,1,3.17,6.19l-.4,0a7,7,0,0,0-2.85-4.11A19.59,19.59,0,0,1,114.13,94l-1.95.68a30.13,30.13,0,0,0,1-3c1-4.29-.77-6.9-5.1-7.77a26.44,26.44,0,0,0-9.47.25c-.06-.7.16-1.43-.24-2.09,1.39-1,3.07-1.48,4.52-2.38.64,0,1.27,0,1.91,0,1.67,0,1.67,0,1.78-1.7l23.74-11.59C132,65.55,133.65,64.8,135.31,64ZM109.59,77.94c.36.44.6.71.81,1,.8,1.09.59,1.75-.71,2.06a22.69,22.69,0,0,1-2.25.32,15,15,0,0,0-4.94,1.22c3.43.1,6.9-.2,10,1.83.56.37.66-.14.74-.53C113.65,81.71,111.93,78.77,109.59,77.94Z"/><path class="cls-5" d="M98.71,42.52c.33-.13.68-.22,1-.38Q110.86,36.7,122,31.25c.41-.2.95-.27,1.12-.81a46.64,46.64,0,0,1,5.08.77c2.54.34,5.08.48,7.63.6,1.84.09,1.84.07,1.54,2a3.14,3.14,0,0,0-1.35.46l-27.2,13.31-9,4.4a1.69,1.69,0,0,1-1.12.33Q98.69,47.39,98.71,42.52Z"/><path class="cls-5" d="M135.31,64c-1.66.77-3.33,1.52-5,2.32L106.59,77.94c0-3.34-.14-6.67.05-10A26.22,26.22,0,0,0,111,66c8.36-4,16.7-8.15,25-12.23a5.62,5.62,0,0,1,.66-.23A94,94,0,0,1,135.31,64Z"/><path class="cls-5" d="M100.31,22.29,77.85,33.19c-.24.12-.54.19-.62.51a35.56,35.56,0,0,1-5.45.09c.08-2.49-.16-5,.13-7.47l0,0c4.49-2.18,9-4.35,13.46-6.56a30,30,0,0,0,4.84-2.56Z"/><path class="cls-3" d="M90.23,17.19a30,30,0,0,1-4.84,2.56c-4.47,2.22-9,4.38-13.46,6.56q0-4.38,0-8.76c0-.39.07-.81-.26-1.13A90.39,90.39,0,0,0,71.76,6.2l0,0A20.4,20.4,0,0,1,76,8.68c4.51,2.8,9,5.56,13.7,8.09A4.58,4.58,0,0,1,90.23,17.19Z"/><path class="cls-6" d="M119.42,91.18A20.07,20.07,0,0,0,123,89.56a59.22,59.22,0,0,1,5.42-2.45c0,.07.08.16.05.22a71.12,71.12,0,0,1-7.3,13.2,9.52,9.52,0,0,0-2.95,1.25c-1.31.58-2.59,1.24-3.89,1.85-.26.12-.54.43-.85.08,2.72-3.46,5.32-7,4.65-11.78l.4,0,.17,1.28h.19Z"/><path class="cls-6" d="M128.4,87.11l.26-.26C128.62,87,128.64,87.18,128.4,87.11Z"/><path class="cls-7" d="M71.91,26.32c-.29,2.48-.05,5-.13,7.47-3.2,0-6.4.07-9.59,0-1,0-1.25.27-1.25,1.26,0,5.32,0,10.63,0,15.95l-2.6,1.17c0-3.11,0-6.23,0-9.34,0-.73-.18-1-.93-1q-5.81.05-11.62,0c-.7,0-1,.15-1,.92,0,3.87,0,7.75,0,11.62,0,.84.32,1,1,1,1.92,0,3.83,0,5.75,0l-5,2.6c-2.91,0-5.82.07-8.73,0-1,0-1.22.29-1.17,1.21.07,1.19,0,2.39,0,3.58-.47.21-.95.41-1.41.64L10.79,75.37A91.2,91.2,0,0,1,7.4,57.57L70.7,26.72C71.08,26.54,71.42,26.18,71.91,26.32Z"/><path class="cls-7" d="M71.76,6.2a90.31,90.31,0,0,1-.06,10.21L44.52,29.65,6.5,48.15C6.14,43.09,6.19,38,6.14,32.94c0-.9.37-1.05,1.13-1.06,10.64-.06,20.6-3.05,30.32-7.07a3.5,3.5,0,0,0,.32-.17c.91-.38,1.84-.74,2.74-1.15A130.45,130.45,0,0,0,53.8,16.82l0,0a38.87,38.87,0,0,0,5.54-3.14l0,0a26,26,0,0,0,4.08-2.44h0a1.18,1.18,0,0,0,.76-.47l0,0a2.67,2.67,0,0,0,1.21-.75l0,0A11.93,11.93,0,0,0,68,8.42l0,0a19.67,19.67,0,0,0,3.38-2.18h0Z"/><path class="cls-8" d="M6.5,48.15l38-18.51L71.69,16.42c.32.32.26.74.26,1.13q0,4.38,0,8.76l0,0c-.49-.15-.83.21-1.21.4L7.4,57.57a20.84,20.84,0,0,1-.61-4.43C6.57,51.49,6.59,49.82,6.5,48.15Z"/><path class="cls-7" d="M39.84,120.15A18,18,0,0,1,36,116.84a92.16,92.16,0,0,1-8.78-9.58,2.94,2.94,0,0,1-.27-.51L49.19,95.9c.43,0,.87-.11,1.3-.12,2.16,0,4.32-.08,6.47,0,1.15.06,1.42-.35,1.34-1.4s0-2,0-3l2.59-1.19c0,4.11.05,8.21,0,12.32,0,.88.2,1.15,1.11,1.14,3.27,0,6.54,0,9.81,0l-.12.89c-4.68,2.26-9.37,4.51-14,6.8Q48.75,115.74,39.84,120.15Z"/><path class="cls-7" d="M21.81,99.44c-.32,0-.44-.32-.59-.55a87.58,87.58,0,0,1-7.47-14.66,2,2,0,0,1-.07-.46c1.79-.85,3.59-1.7,5.38-2.56l17.61-8.53c0,2,.08,3.91,0,5.87,0,.92.26,1.12,1.14,1.12q9.64-.05,19.29,0c1,0,1.18-.29,1.17-1.21,0-5.47,0-10.94,0-16.41l2.6-1.17c0,5.87.05,11.74,0,17.61,0,1,.29,1.29,1.18,1.2l-5,2.58c-3.74,0-7.47.06-11.2,0-1,0-1.21.28-1.17,1.2.07,1.59,0,3.18,0,4.77Z"/><path class="cls-7" d="M71.84,124.29q0,8.18,0,16.35c0,.31-.05.63-.08.94a158.6,158.6,0,0,1-19.07-11.26,35,35,0,0,1-5.4-4.06l23.51-11.42c.35-.17.66-.47,1.1-.39C71.67,117.72,71.76,121,71.84,124.29Zm-7,3.36c1,0,2.16-1.05,2.12-1.85a1.63,1.63,0,0,0-2.08-1.48c-1.2.36-.85-.23-.63-.82.09-.24.16-.54-.09-.61s-.5.17-.55.48c-.12.77-.18,1.55-.34,2.31A1.52,1.52,0,0,0,64.82,127.65ZM61,129.46a.35.35,0,0,0,.56-.13,7.7,7.7,0,0,0,.57-2.94A1.52,1.52,0,0,0,61,124.81a2.17,2.17,0,0,0-2.12.72,1.64,1.64,0,0,0-.21,1.88,1,1,0,0,0,.62.62,2.5,2.5,0,0,0,2.15-.36Zm7.12-7.41c.53,1.07,1,2,1.5,3,.12.24.2.41.6.26s.13-.47.08-.6c-.44-1-.91-2-1.42-3-.14-.27-.1-.75-.62-.73s-.53.41-.68.72-.26.56-.41.83-.22.3.11.39.39.3.45-.14C67.73,122.55,67.89,122.4,68.1,122.05Zm-12.25,6c.54,1.09,1,2.06,1.51,3,.12.24.21.4.61.24.56-.22.12-.49.07-.6-.5-1.13-1.06-2.23-1.56-3.36-.23-.53-.56-.59-.87-.19a12.25,12.25,0,0,0-.75,1.43c-.14.26,0,.25.17.27s.28.4.41,0A5.79,5.79,0,0,1,55.85,128Z"/><path class="cls-8" d="M71.89,114.44c-.44-.07-.75.23-1.1.39L47.28,126.26a37.4,37.4,0,0,1-7.44-6.11q8.93-4.39,17.85-8.77c4.67-2.28,9.36-4.53,14-6.8a1.69,1.69,0,0,1,.2.54c0,3.11,0,6.21-.06,9.32Z"/><path class="cls-8" d="M36.68,72.67,19.08,81.2c-1.79.87-3.59,1.71-5.38,2.56a52.41,52.41,0,0,1-2.9-8.39l24.48-11.9c.46-.23.94-.43,1.41-.64Q36.68,67.75,36.68,72.67Z"/><path class="cls-8" d="M21.81,99.44l23-11.2c0,2.19,0,4.38,0,6.56,0,.71.2,1,.94,1a13.29,13.29,0,0,1,3.44.12L26.94,106.75A32.91,32.91,0,0,1,21.81,99.44Z"/><path class="cls-3" d="M53.8,16.82a130.45,130.45,0,0,1-13.15,6.66c-.9.41-1.83.77-2.74,1.15,1-1.24,2.55-1.35,3.82-2,3.5-1.88,7.18-3.4,10.63-5.38A1.8,1.8,0,0,1,53.8,16.82Z"/><path class="cls-3" d="M59.32,13.7a38.87,38.87,0,0,1-5.54,3.14c.17-.7.88-.81,1.36-1C56.55,15.13,57.72,14,59.32,13.7Z"/><path class="cls-3" d="M63.38,11.27a26,26,0,0,1-4.08,2.44A8.93,8.93,0,0,1,63.38,11.27Z"/><path class="cls-3" d="M71.32,6.26a19.67,19.67,0,0,1-3.38,2.18A6.39,6.39,0,0,1,71.32,6.26Z"/><path class="cls-3" d="M68,8.42a11.93,11.93,0,0,1-2.67,1.68A4,4,0,0,1,68,8.42Z"/><path class="cls-3" d="M65.31,10.08a2.67,2.67,0,0,1-1.21.75A1,1,0,0,1,65.31,10.08Z"/><path class="cls-3" d="M64.12,10.82a1.18,1.18,0,0,1-.76.47A.61.61,0,0,1,64.12,10.82Z"/><path class="cls-9" d="M106.64,67.94c-.2,3.33-.1,6.67-.05,10-.1,1.7-.1,1.69-1.78,1.7-.64,0-1.27,0-1.91,0-.48,0-1,0-1.44-.05-5.08,0-10.16,0-15.24,0-.71,0-1.19-.09-1.06-.95,0-4.11,0-8.22,0-12.33,0-2.39-.05-4.78-.08-7.17,0-1,.4-1.3,1.34-1.14a3.82,3.82,0,0,0,1.61-.21c.36.37.83.2,1.25.21,4.43,0,8.85,0,13.28,0,1.29,0,3-.6,3.76.3s.17,2.44.21,3.71C106.6,64,106.43,66,106.64,67.94Zm-5.32.93A5.32,5.32,0,1,0,96,74.4,5.47,5.47,0,0,0,101.32,68.87Z"/><path class="cls-10" d="M98.71,42.52q0,4.87-.05,9.73c0,.08,0,.16,0,.24-.07,2.92-.07,2.91-3.05,2.92H92.36c-2.1,0-4.2,0-6.3,0-.67,0-.9-.21-.89-.88,0-1.7,0-3.41,0-5.11,0-2.11,0-4.22,0-6.33,0-.78.15-1.14,1-1.13,3.82,0,7.65,0,11.47,0C98.14,42,98.58,41.95,98.71,42.52Z"/><path class="cls-5" d="M85.19,49.41c0,1.7,0,3.41,0,5.11,0,.68.22.89.89.88,2.1,0,4.2,0,6.3,0a26.43,26.43,0,0,1-3.59,1.86c-.28.14-.61.19-.71.56a3.81,3.81,0,0,1-1.61.21c-.93-.16-1.38.19-1.33,1.14-.94.1-1.63.86-2.56,1a2.9,2.9,0,0,1,0-.6C82.74,58.39,82.3,58,81,58c-3.07.09-6.15,0-9.23,0l.09-2.54c3.19-.21,6.39-.07,9.59-.08.81,0,1.13-.17,1.09-1.05-.06-1.31,0-2.63,0-4C83.51,50.21,84.19,49.41,85.19,49.41Z"/><path class="cls-6" d="M71.89,114.44h0c1.84-.86,3.68-1.7,5.51-2.59L105.64,98a8.07,8.07,0,0,1,2.21-.87c-.14.33-.27.67-.44,1-2.81,5.37-7.15,9.23-12.19,12.39-1.64,1-3.36,1.9-5.05,2.84l.3.37a39.26,39.26,0,0,0,21.72-19l1.95-.68c-.09.27-.15.54-.26.8a32.23,32.23,0,0,1-16.61,17.23c-4.45,2.11-9.06,3-13.89,1.25-.2-.08-.39-.17-.55.07l.39.17c2.08,1.31,4.44,1.56,6.8,1.83a30.62,30.62,0,0,1-4.45,2.25l-13.72,6.66C71.76,121,71.67,117.72,71.89,114.44Zm17.85-.72c.06,0,.17,0,.18-.09s0-.18-.17-.14a1.12,1.12,0,0,0-.19.11Z"/><path class="cls-11" d="M83.38,113.32c4.82,1.75,9.43.86,13.89-1.25a32.23,32.23,0,0,0,16.61-17.23c.11-.26.17-.53.26-.8a19.59,19.59,0,0,0,1.14-6.23,7,7,0,0,1,2.85,4.11c.67,4.8-1.93,8.31-4.65,11.78a38.61,38.61,0,0,1-12.7,9.21A28.65,28.65,0,0,1,90,115.39c-2.36-.27-4.72-.52-6.8-1.83Z"/><path class="cls-9" d="M82.59,50.4c0,1.32-.1,2.64,0,4,0,.88-.28,1.05-1.09,1.05-3.2,0-6.39-.13-9.59.08l0,0,0,0c-.51,0-1-.1-1.54-.1-2.78,0-5.56,0-8.34,0-.72,0-1-.18-.95-.93.05-1.15,0-2.3,0-3.45,0-5.32.05-10.63,0-15.95,0-1,.24-1.27,1.25-1.26,3.2.05,6.39,0,9.59,0a35.57,35.57,0,0,0,5.45-.09,20.21,20.21,0,0,0,4.18.1c.89,0,1.16.24,1.15,1.14C82.53,40.1,82.57,45.25,82.59,50.4ZM66.47,44.57A5.3,5.3,0,1,0,71.74,39,5.4,5.4,0,0,0,66.47,44.57Z"/><path class="cls-11" d="M112.19,94.72a39.26,39.26,0,0,1-21.72,19l-.3-.37c1.69-.94,3.42-1.82,5.05-2.84,5-3.16,9.39-7,12.19-12.39.17-.32.29-.66.44-1a11.51,11.51,0,0,0,1-3.64,5.39,5.39,0,0,0-3.54-6,12.13,12.13,0,0,0-6.7-.43,34.28,34.28,0,0,0-8,2,48.57,48.57,0,0,1-5,1.85,5.69,5.69,0,0,1,1.66-1.67,26.09,26.09,0,0,1,11.32-5.12,26.44,26.44,0,0,1,9.47-.25c4.33.87,6.07,3.48,5.1,7.77A30.13,30.13,0,0,1,112.19,94.72Z"/><path class="cls-5" d="M85.18,78.7c-.14.86.35.95,1.06.95,5.08,0,10.16,0,15.24,0,.48,0,1,0,1.44.05-1.45.9-3.13,1.36-4.52,2.38a5.24,5.24,0,0,1-1.76.24c-3.46,0-6.92,0-10.39,0-.83,0-1.1.23-1.08,1.07,0,1.71,0,3.42,0,5.13-.91.23-1.61,1-2.6,1,0-2.08,0-4.16,0-6.24,0-.72-.17-1-.93-1-1.28,0-2.56,0-3.84,0,.4-.23.81-.45,1.21-.7,1.09-.67,2.44-.86,3.39-1.8l.2-.09C83.55,79.64,84.24,78.82,85.18,78.7Z"/><path class="cls-10" d="M85.14,88.48c0-1.71.08-3.42,0-5.13,0-.84.24-1.08,1.08-1.07,3.46,0,6.92,0,10.39,0a5.24,5.24,0,0,0,1.76-.24c.4.66.18,1.39.24,2.09a26.09,26.09,0,0,0-11.32,5.12,5.69,5.69,0,0,0-1.66,1.67l0,0-.43.11Z"/><path class="cls-11" d="M119.42,91.18l-.54,2h-.19l-.17-1.28a8.54,8.54,0,0,0-3.17-6.19c-.38-.31-.75-.6-.73-1.15a9.51,9.51,0,0,0-2.07-6.13,10,10,0,0,1,5.22,4.36A13.59,13.59,0,0,1,119.42,91.18Z"/><path class="cls-11" d="M109.59,77.94c2.34.83,4.07,3.77,3.62,5.91-.08.39-.18.9-.74.53-3.06-2-6.54-1.72-10-1.83a15,15,0,0,1,4.94-1.22,22.69,22.69,0,0,0,2.25-.32c1.3-.31,1.51-1,.71-2.06C110.18,78.65,109.95,78.39,109.59,77.94Z"/><path class="cls-12" d="M36.68,72.67q0-4.92,0-9.84c0-1.2.09-2.39,0-3.58-.05-.92.19-1.23,1.17-1.21,2.91.06,5.82,0,8.73,0,3.56,0,7.11,0,10.67,0,.76,0,1.08.17,1,1-.07,1,0,2,0,3,0,5.47,0,10.94,0,16.41,0,.92-.19,1.22-1.17,1.21q-9.64-.07-19.29,0c-.88,0-1.17-.2-1.14-1.12C36.77,76.58,36.7,74.63,36.68,72.67Zm16.14-3.82a5.3,5.3,0,1,0-5.39,5.55A5.45,5.45,0,0,0,52.82,68.85Z"/><path class="cls-10" d="M51.58,55.43c-1.92,0-3.83-.05-5.75,0-.73,0-1.06-.13-1-1,0-3.87,0-7.75,0-11.62,0-.77.28-.93,1-.92q5.81,0,11.62,0c.75,0,.93.22.93,1,0,3.11,0,6.23,0,9.34,0,.47,0,.95,0,1.42,0,2,.33,1.77-1.85,1.79Z"/><path class="cls-8" d="M51.58,55.43l4.87,0c2.18,0,1.81.25,1.85-1.79,0-.47,0-.95,0-1.42L60.92,51c0,1.15.08,2.31,0,3.45,0,.75.23.94.95.93,2.78,0,5.56,0,8.34,0,.51,0,1,.06,1.54.1l-5,2.53-2.86,0c-.91,0-2-.3-2.68.12s-.11,1.77-.33,2.67L58.32,62c0-1-.09-2,0-3,.05-.83-.27-1-1-1-3.56,0-7.11,0-10.67,0Z"/><path class="cls-4" d="M85.14,88.48,85.25,91v0c0,1.2,0,2.4-.07,3.59-.05.85.27,1.09,1.09,1.08,3.76,0,7.51,0,11.27,0,1,0,1.12-.36,1.11-1.2,0-2.48,0-5,0-7.43a12.13,12.13,0,0,1,6.7.43,5.39,5.39,0,0,1,3.54,6,11.51,11.51,0,0,1-1,3.64,8.06,8.06,0,0,0-2.21.87L77.39,111.85c-1.82.89-3.67,1.73-5.51,2.59,0-3.11,0-6.21.06-9.32a1.69,1.69,0,0,0-.2-.54l.12-.89c3.19,0,6.37-.06,9.56,0,.9,0,1.15-.26,1.14-1.15,0-4.34,0-8.68,0-13C83.53,89.47,84.23,88.7,85.14,88.48Z"/><path class="cls-9" d="M82.55,89.5c0,4.34,0,8.69,0,13,0,.89-.24,1.16-1.14,1.15-3.19,0-6.37,0-9.56,0s-6.54-.06-9.81,0c-.91,0-1.12-.26-1.11-1.14,0-4.11,0-8.21,0-12.32,0-2.24.08-4.48,0-6.72,0-.93.21-1.22,1.18-1.21,3.28,0,6.56,0,9.83,0l5.83,0c1.28,0,2.56.07,3.83,0,.76,0,.94.25.93,1C82.51,85.34,82.54,87.42,82.55,89.5ZM66.47,93a5.3,5.3,0,1,0,5.29-5.48A5.36,5.36,0,0,0,66.47,93Z"/><path class="cls-10" d="M49.19,95.9a13.29,13.29,0,0,0-3.44-.12c-.74,0-1-.26-.94-1,0-2.19,0-4.38,0-6.56,0-1.59.06-3.18,0-4.77,0-.92.21-1.21,1.17-1.2,3.73,0,7.47,0,11.2,0,1-.13,1.18.33,1.16,1.24-.05,2.64,0,5.27,0,7.91,0,1-.1,2,0,3s-.18,1.46-1.34,1.4c-2.15-.1-4.32,0-6.47,0C50.06,95.78,49.63,95.86,49.19,95.9Z"/><path class="cls-8" d="M58.33,91.41c0-2.64-.06-5.27,0-7.91,0-.91-.2-1.36-1.16-1.24l5-2.58,9.83,0q0,1.27,0,2.54c-3.28,0-6.56.09-9.83,0-1,0-1.2.28-1.18,1.21.06,2.24,0,4.48,0,6.72Z"/><path class="cls-9" d="M71.95,79.7l-9.83,0c-.89.09-1.19-.24-1.18-1.2,0-5.87,0-11.74,0-17.61.22-.91-.45-2.15.33-2.67s1.77-.11,2.68-.12l2.86,0h5c3.08,0,6.15.1,9.23,0,1.28,0,1.72.36,1.52,1.58a2.9,2.9,0,0,0,0,.6q0,9.74,0,19.48l-.2.09C78.9,79.51,75.43,79.65,71.95,79.7ZM66.47,68.79a5.42,5.42,0,0,0,5.31,5.61,5.6,5.6,0,1,0-5.31-5.61Z"/><path class="cls-5" d="M64.82,127.65a1.52,1.52,0,0,1-1.56-2c.16-.76.22-1.54.34-2.31,0-.3.24-.57.55-.48s.18.37.09.61c-.22.58-.57,1.18.63.82a1.63,1.63,0,0,1,2.08,1.48C67,126.6,65.78,127.64,64.82,127.65ZM64.08,126c-.19.78.42,1.11,1,1.12A1.13,1.13,0,0,0,66.17,126,1,1,0,0,0,65,125C64.32,125,64,125.23,64.08,126Z"/><path class="cls-5" d="M61,129.46l.45-1.79a2.5,2.5,0,0,1-2.15.36,1,1,0,0,1-.62-.62,1.64,1.64,0,0,1,.21-1.88,2.17,2.17,0,0,1,2.12-.72,1.52,1.52,0,0,1,1.12,1.58,7.7,7.7,0,0,1-.57,2.94A.35.35,0,0,1,61,129.46Zm-1.69-3c-.24.76.41,1.06.95,1.09a1.14,1.14,0,0,0,1.14-1.1,1,1,0,0,0-1.13-1C59.56,125.51,59.17,125.68,59.29,126.51Z"/><path class="cls-5" d="M68.1,122.05c-.21.34-.37.5-.39.68-.06.44-.23.2-.45.14s-.2-.21-.11-.39.26-.56.41-.83.22-.7.68-.72.48.46.62.73c.51,1,1,2,1.42,3,.06.13.47.39-.08.6s-.48,0-.6-.26C69.11,124.09,68.63,123.12,68.1,122.05Z"/><path class="cls-5" d="M55.85,128a5.79,5.79,0,0,0-.42.8c-.13.42-.28,0-.41,0s-.32,0-.17-.27a12.25,12.25,0,0,1,.75-1.43c.31-.4.63-.34.87.19.5,1.13,1.06,2.23,1.56,3.36.05.12.49.39-.07.6-.4.15-.48,0-.61-.24C56.87,130.1,56.39,129.13,55.85,128Z"/><path class="cls-13" d="M101.32,68.87a5.32,5.32,0,1,1-10.62-.1,5.32,5.32,0,1,1,10.62.1Z"/><path class="cls-4" d="M82.58,79.68q0-9.74,0-19.48c.93-.14,1.62-.9,2.56-1,0,2.39.07,4.78.08,7.17,0,4.11,0,8.22,0,12.33C84.24,78.82,83.55,79.64,82.58,79.68Z"/><path class="cls-7" d="M71.79,58h-5l5-2.53,0,0,0,0Z"/><path class="cls-11" d="M89.74,113.72l-.18-.12a1.12,1.12,0,0,1,.19-.11c.12,0,.21,0,.17.14S89.8,113.69,89.74,113.72Z"/><path class="cls-11" d="M83.21,113.56l-.39-.17c.16-.23.36-.15.55-.07Z"/><path class="cls-13" d="M66.47,44.57A5.37,5.37,0,0,1,71.74,39a5.57,5.57,0,1,1-5.27,5.53Z"/><path class="cls-10" d="M98.63,87.12c0,2.48,0,5,0,7.43,0,.84-.15,1.21-1.11,1.2-3.76-.05-7.51,0-11.27,0-.83,0-1.15-.23-1.09-1.08.07-1.19.05-2.4.07-3.59.16,0,.37.15.43-.15l0,0a48.58,48.58,0,0,0,5-1.85A34.28,34.28,0,0,1,98.63,87.12Z"/><path class="cls-4" d="M71.95,79.7c3.48-.06,7-.19,10.43.07-.95.94-2.3,1.12-3.39,1.8-.4.24-.81.46-1.21.7l-5.83,0Q71.95,81,71.95,79.7Z"/><path class="cls-11" d="M85.68,90.92c-.06.3-.27.15-.43.15v0Z"/><path class="cls-13" d="M52.82,68.85a5.31,5.31,0,1,1-5.2-5.65A5.52,5.52,0,0,1,52.82,68.85Z"/><path class="cls-13" d="M66.47,93a5.35,5.35,0,0,1,5.29-5.48A5.56,5.56,0,1,1,66.47,93Z"/><path class="cls-13" d="M66.47,68.79a5.46,5.46,0,0,1,5.37-5.58,5.6,5.6,0,0,1-.05,11.19A5.42,5.42,0,0,1,66.47,68.79Z"/><path class="cls-7" d="M64.08,126c-.1-.76.24-1,.94-1a1,1,0,0,1,1.15,1A1.13,1.13,0,0,1,65,127.12C64.5,127.1,63.89,126.78,64.08,126Z"/><path class="cls-7" d="M59.29,126.51c-.11-.82.27-1,1-1a1,1,0,0,1,1.13,1,1.14,1.14,0,0,1-1.14,1.1C59.7,127.56,59,127.27,59.29,126.51Z"/></svg>